<svg xmlns="http://www.w3.org/2000/svg" viewBox="0 0 208.55 24.36"><defs><style>.cls-1{isolation:isolate;}.cls-2{mix-blend-mode:multiply;}.cls-3{fill:#fff4e2;}</style></defs><title>HS_logo_white_1</title><g class="cls-1"><g id="Layer_2" data-name="Layer 2"><g id="Layer_1-2" data-name="Layer 1"><g class="cls-2"><path class="cls-3" d="M22.56,9.62,17.15.24A.48.48,0,0,0,16.73,0H5.9a.48.48,0,0,0-.41.24L.06,9.62a.48.48,0,0,0,0,.48l5.42,9.38a.48.48,0,0,0,.41.24H16.73a.48.48,0,0,0,.41-.24l5.42-9.38A.48.48,0,0,0,22.56,9.62ZM6.17,1h9.73L13.7,4.78h-5A.48.48,0,0,0,8.24,5L5.71,9.41H1.29ZM13.7,14H9.47l2.05-3.63h4.27Zm-5-7.78,2.07,3.63L8.65,13.51,6.55,9.86Zm2.92,3.19L9.48,5.73H13.7l2.12,3.67Zm-10.25,1H5.73l2.51,4.35a.48.48,0,0,0,.41.24h5l2.21,3.82H6.17Zm15.42,7.93-2.21-3.82L17,10.1a.48.48,0,0,0,0-.48L14.53,5.26l2.21-3.82L21.6,9.86Z"/><path class="cls-3" d="M31.42,6.39A6.53,6.53,0,0,1,33.5,5a6.8,6.8,0,0,1,2.77-.53,8.56,8.56,0,0,1,3,.46A4.48,4.48,0,0,1,41.19,6.2a5.05,5.05,0,0,1,1,2.08A11.94,11.94,0,0,1,42.48,11v8.7H39.27V11a4.84,4.84,0,0,0-.82-2.89A2.89,2.89,0,0,0,35.93,7a5.14,5.14,0,0,0-1.74.29,4,4,0,0,0-1.41.86,4.23,4.23,0,0,0-1,1.42,5.25,5.25,0,0,0-.39,1.94v8.21H28.21V0h3.21Z"/><path class="cls-3" d="M63.42,14.67a4.74,4.74,0,0,1-2.58,4.14A14.67,14.67,0,0,1,54.27,20a21.73,21.73,0,0,1-4.2-.35,6.45,6.45,0,0,1-2.85-1.24A5.23,5.23,0,0,1,45.59,16a11.57,11.57,0,0,1-.53-3.8,9.94,9.94,0,0,1,.62-3.76A5.72,5.72,0,0,1,47.48,6a7.25,7.25,0,0,1,2.89-1.29,18.15,18.15,0,0,1,3.89-.38A18.48,18.48,0,0,1,58,4.71a7.71,7.71,0,0,1,2.89,1.2,5.57,5.57,0,0,1,1.86,2.23,8,8,0,0,1,.65,3.41v1.73H48.57a3.67,3.67,0,0,0,1.35,3.13,7.27,7.27,0,0,0,4.35,1,12.45,12.45,0,0,0,2.53-.21,5.09,5.09,0,0,0,1.58-.57,2.18,2.18,0,0,0,.85-.87,3.65,3.65,0,0,0,.35-1.11ZM54.27,6.94a13.14,13.14,0,0,0-2.77.24,4.38,4.38,0,0,0-1.76.75,2.64,2.64,0,0,0-.91,1.25A5.5,5.5,0,0,0,48.57,11H59.84a5.58,5.58,0,0,0-.27-1.86,2.64,2.64,0,0,0-.92-1.25,4.22,4.22,0,0,0-1.73-.7A13.87,13.87,0,0,0,54.27,6.94Z"/><path class="cls-3" d="M80.84,11.24a6,6,0,0,0-.32-2.12,2.73,2.73,0,0,0-1-1.29,4.2,4.2,0,0,0-1.71-.65A14.94,14.94,0,0,0,75.33,7a19.4,19.4,0,0,0-2.52.13,4.48,4.48,0,0,0-1.56.45,1.47,1.47,0,0,0-.73.88,3.11,3.11,0,0,0,0,1.41H66.69a4.43,4.43,0,0,1,.47-2.7A4.38,4.38,0,0,1,69,5.5a8.73,8.73,0,0,1,2.83-.85,25.61,25.61,0,0,1,3.52-.23,21,21,0,0,1,4.06.33,6.23,6.23,0,0,1,2.7,1.15,4.63,4.63,0,0,1,1.5,2.21,11.18,11.18,0,0,1,.47,3.51v8.09H81.57L81.26,18a4.5,4.5,0,0,1-.85.76,5.52,5.52,0,0,1-1.32.65,10.18,10.18,0,0,1-1.91.46A17.75,17.75,0,0,1,74.6,20a28.06,28.06,0,0,1-4.14-.26,8.46,8.46,0,0,1-2.7-.8,3.43,3.43,0,0,1-1.47-1.41,4.48,4.48,0,0,1-.45-2.11,4.56,4.56,0,0,1,.39-2,3.15,3.15,0,0,1,1.15-1.29,5.12,5.12,0,0,1,1.88-.68,15.27,15.27,0,0,1,2.61-.2Zm-6.5,6.12a24.71,24.71,0,0,0,3.33-.18,5.42,5.42,0,0,0,2-.62,2.06,2.06,0,0,0,1-1.2,4.92,4.92,0,0,0,.11-1.91H72a3.68,3.68,0,0,0-1.91.42,1.5,1.5,0,0,0-.7,1.39,1.64,1.64,0,0,0,1.11,1.64A11.37,11.37,0,0,0,74.34,17.36Z"/><path class="cls-3" d="M96.52,20a11.66,11.66,0,0,1-4-.58,5.72,5.72,0,0,1-2.34-1.52v6.45H86.93V4.58h3.21V6.4a6.15,6.15,0,0,1,2.35-1.51,11.37,11.37,0,0,1,4-.58,20,20,0,0,1,4.33.39A6.21,6.21,0,0,1,103.64,6a5.15,5.15,0,0,1,1.5,2.44,13.27,13.27,0,0,1,.46,3.76,13.11,13.11,0,0,1-.46,3.74,4.91,4.91,0,0,1-1.52,2.39,6.37,6.37,0,0,1-2.79,1.27A20.57,20.57,0,0,1,96.52,20Zm.2-13.12a15.24,15.24,0,0,0-2.92.24,4.75,4.75,0,0,0-2,.85A3.57,3.57,0,0,0,90.61,9.6a7.43,7.43,0,0,0-.38,2.57,6.79,6.79,0,0,0,.44,2.66,3.65,3.65,0,0,0,1.27,1.6,4.93,4.93,0,0,0,2,.77,17,17,0,0,0,2.74.2,11.89,11.89,0,0,0,2.51-.23,3.51,3.51,0,0,0,1.67-.82,3.32,3.32,0,0,0,.91-1.61,10.13,10.13,0,0,0,.27-2.57,10.85,10.85,0,0,0-.26-2.6A3.35,3.35,0,0,0,101,8a3.4,3.4,0,0,0-1.65-.83A11.66,11.66,0,0,0,96.72,6.88Z"/><path class="cls-3" d="M116.53,4.3a28.59,28.59,0,0,1,3.24.17,7,7,0,0,1,2.48.71,3.82,3.82,0,0,1,1.59,1.56,5.55,5.55,0,0,1,.56,2.68H120.9a4.11,4.11,0,0,0-.18-1.35A1.41,1.41,0,0,0,120,7.3,3.39,3.39,0,0,0,118.71,7q-.85-.07-2.18-.08t-2.24.06a5.5,5.5,0,0,0-1.39.24,1.23,1.23,0,0,0-.71.54,2.1,2.1,0,0,0-.2,1,2.81,2.81,0,0,0,.12.93,1,1,0,0,0,.58.53,4.91,4.91,0,0,0,1.38.29l2.56.21q2.18.12,3.77.29a9.39,9.39,0,0,1,2.61.59,3.11,3.11,0,0,1,1.51,1.24A4.28,4.28,0,0,1,125,15a6.33,6.33,0,0,1-.45,2.62,3.2,3.2,0,0,1-1.45,1.51,7,7,0,0,1-2.62.68q-1.62.15-3.92.15t-4-.12a6.85,6.85,0,0,1-2.65-.65,3.12,3.12,0,0,1-1.47-1.62,8,8,0,0,1-.45-3h3.51a6.06,6.06,0,0,0,.17,1.62,1.32,1.32,0,0,0,.68.84,3.71,3.71,0,0,0,1.51.32q1,0,2.7,0a23,23,0,0,0,2.64-.12,4.27,4.27,0,0,0,1.52-.41,1.4,1.4,0,0,0,.68-.75,3.39,3.39,0,0,0,.17-1.13,1.91,1.91,0,0,0-.2-1,1.25,1.25,0,0,0-.76-.5,7.84,7.84,0,0,0-1.56-.24l-2.58-.17q-2.21-.18-3.73-.33a8.13,8.13,0,0,1-2.47-.58A2.73,2.73,0,0,1,108.9,11a5.08,5.08,0,0,1-.42-2.3A4.12,4.12,0,0,1,109,6.38a3.61,3.61,0,0,1,1.64-1.32,8.74,8.74,0,0,1,2.55-.61A32.89,32.89,0,0,1,116.53,4.3Z"/><path class="cls-3" d="M137.33,20a11.66,11.66,0,0,1-4-.58A5.72,5.72,0,0,1,131,17.91v6.45h-3.21V4.58H131V6.4a6.15,6.15,0,0,1,2.35-1.51,11.37,11.37,0,0,1,4-.58,20,20,0,0,1,4.33.39A6.21,6.21,0,0,1,144.45,6,5.15,5.15,0,0,1,146,8.45a13.27,13.27,0,0,1,.46,3.76A13.11,13.11,0,0,1,146,16a4.91,4.91,0,0,1-1.52,2.39,6.37,6.37,0,0,1-2.79,1.27A20.57,20.57,0,0,1,137.33,20Zm.2-13.12a15.24,15.24,0,0,0-2.92.24,4.75,4.75,0,0,0-2,.85,3.57,3.57,0,0,0-1.17,1.63,7.43,7.43,0,0,0-.38,2.57,6.79,6.79,0,0,0,.44,2.66,3.65,3.65,0,0,0,1.27,1.6,4.93,4.93,0,0,0,2,.77,17,17,0,0,0,2.74.2,11.89,11.89,0,0,0,2.51-.23,3.51,3.51,0,0,0,1.67-.82,3.32,3.32,0,0,0,.91-1.61,10.13,10.13,0,0,0,.27-2.57,10.85,10.85,0,0,0-.26-2.6A3.35,3.35,0,0,0,141.77,8a3.4,3.4,0,0,0-1.65-.83A11.66,11.66,0,0,0,137.53,6.88Z"/><path class="cls-3" d="M163.8,11.24a6,6,0,0,0-.32-2.12,2.73,2.73,0,0,0-1-1.29,4.2,4.2,0,0,0-1.71-.65,14.94,14.94,0,0,0-2.5-.18,19.4,19.4,0,0,0-2.52.13,4.48,4.48,0,0,0-1.56.45,1.46,1.46,0,0,0-.73.88,3.11,3.11,0,0,0,0,1.41h-3.82a4.43,4.43,0,0,1,.47-2.7,4.38,4.38,0,0,1,1.82-1.68,8.73,8.73,0,0,1,2.83-.85,25.61,25.61,0,0,1,3.52-.23,21,21,0,0,1,4.06.33A6.23,6.23,0,0,1,165,5.91a4.63,4.63,0,0,1,1.5,2.21,11.18,11.18,0,0,1,.47,3.51v8.09h-2.48l-.3-1.76a4.5,4.5,0,0,1-.85.76,5.52,5.52,0,0,1-1.32.65,10.18,10.18,0,0,1-1.91.46,17.75,17.75,0,0,1-2.59.17,28.06,28.06,0,0,1-4.14-.26,8.46,8.46,0,0,1-2.7-.8,3.43,3.43,0,0,1-1.47-1.41,4.48,4.48,0,0,1-.45-2.11,4.56,4.56,0,0,1,.39-2,3.15,3.15,0,0,1,1.15-1.29,5.12,5.12,0,0,1,1.88-.68,15.27,15.27,0,0,1,2.61-.2Zm-6.5,6.12a24.71,24.71,0,0,0,3.33-.18,5.42,5.42,0,0,0,2-.62,2.06,2.06,0,0,0,1-1.2,4.92,4.92,0,0,0,.11-1.91h-8.78a3.68,3.68,0,0,0-1.91.42,1.5,1.5,0,0,0-.7,1.39,1.64,1.64,0,0,0,1.11,1.64A11.37,11.37,0,0,0,157.3,17.36Z"/><path class="cls-3" d="M173.1,12.15a5.09,5.09,0,0,0,1.44,4,6.1,6.1,0,0,0,4.23,1.3,12.38,12.38,0,0,0,2.49-.21,4.08,4.08,0,0,0,1.61-.66,2.28,2.28,0,0,0,.83-1.16,5.09,5.09,0,0,0,.2-1.7h3.85a5.29,5.29,0,0,1-.5,3,5,5,0,0,1-1.88,1.94,8.93,8.93,0,0,1-2.92,1,19.84,19.84,0,0,1-3.67.32,18.63,18.63,0,0,1-3.88-.36A7.32,7.32,0,0,1,172,18.39a5.51,5.51,0,0,1-1.8-2.39,10.13,10.13,0,0,1-.62-3.82,9,9,0,0,1,.7-3.76A6.13,6.13,0,0,1,172.21,6a7.82,7.82,0,0,1,2.91-1.3,16,16,0,0,1,3.65-.39,17.21,17.21,0,0,1,3.61.36A9,9,0,0,1,185.3,5.8a5,5,0,0,1,1.85,2,5.07,5.07,0,0,1,.41,3h-3.85a5,5,0,0,0,0-1.68,2.09,2.09,0,0,0-.7-1.22,3.69,3.69,0,0,0-1.59-.73,11.89,11.89,0,0,0-2.67-.25,6.06,6.06,0,0,0-4.3,1.3A5.25,5.25,0,0,0,173.1,12.15Z"/><path class="cls-3" d="M208.55,14.67A4.74,4.74,0,0,1,206,18.8,14.67,14.67,0,0,1,199.4,20a21.73,21.73,0,0,1-4.2-.35,6.45,6.45,0,0,1-2.85-1.24A5.23,5.23,0,0,1,190.72,16a11.57,11.57,0,0,1-.53-3.8,9.94,9.94,0,0,1,.62-3.76A5.72,5.72,0,0,1,192.61,6a7.25,7.25,0,0,1,2.89-1.29,18.15,18.15,0,0,1,3.89-.38,18.48,18.48,0,0,1,3.74.35A7.71,7.71,0,0,1,206,5.91a5.57,5.57,0,0,1,1.86,2.23,8,8,0,0,1,.65,3.41v1.73H193.7a3.67,3.67,0,0,0,1.35,3.13,7.27,7.27,0,0,0,4.35,1,12.44,12.44,0,0,0,2.53-.21,5.09,5.09,0,0,0,1.58-.57,2.18,2.18,0,0,0,.85-.87,3.65,3.65,0,0,0,.35-1.11ZM199.4,6.94a13.14,13.14,0,0,0-2.77.24,4.38,4.38,0,0,0-1.76.75A2.64,2.64,0,0,0,194,9.18,5.5,5.5,0,0,0,193.7,11H205a5.58,5.58,0,0,0-.27-1.86,2.64,2.64,0,0,0-.92-1.25,4.22,4.22,0,0,0-1.73-.7A13.87,13.87,0,0,0,199.4,6.94Z"/></g></g></g></g></svg>